<svg width="302.973" height="352.777" xmlns:xlink="http://www.w3.org/1999/xlink" xmlns="http://www.w3.org/2000/svg">
  <defs>
    <g id="book">
      <path fill="none" stroke="#000" stroke-width="2" d="M15.300209 3.630284h-12.162"/>
      <path fill="none" stroke="#000" d="m2.431209 28.556284 1.237-24.926"/>
      <g fill="none" stroke="#000" stroke-width="2">
        <path d="M50.514209 42.344284c-.171-.043 2.287-.881 3.006-1.061.896-.224 1.877-.188 2.651 0 .806.195 1.533.649 2.121 1.237.706.706 1.311 1.157 1.769 1.768.364.486.733.911 1.062 1.237m-10.255-26.693c.249.125 2.136 0 3.006 0 1.174 0 1.875.055 2.828.531.897.449 1.895.505 2.65.884.652.326 1.139.607 1.77 1.237.84.84 1.084 1.505 1.943 2.65.791 1.056.853 1.655.354 2.651-.104.207-.947.594-1.061.707m-45.62-26.483 34.13.324-.707 57.629-33.587-.707-.177-23.159 6.188.178.177 16.617 21.567-.53.529-44.726-22.45-.353v14.319l-6.188-.354z"/>
        <path d="m44.858209 6.635284-9.546 19.27c.235.236.473.472.707.707.583.583.53 1.352.53 2.299 0 1.029-.057 1.704-.354 2.298-.359.718-1.317 1.036-2.121 1.237-.772.192-1.56-.675-1.945-1.062-.501-.501-.898-1.122-1.061-1.768-.221-.88.088-1.943.354-2.476.346-.69 1.131-.901 1.769-1.062.638-.159 1.464-.045 2.121-.177m-.53 6.367 9.191 18.915m-21.036.177 9.192-19.977m-9.369-25.101 9.723 19.976m-15.732-24.395c.972-.243 0 2.003 0 3.005v8.839c0 .955.003 1.932-.177 2.651-.256 1.021-.53 1.717-.53 2.829 0 .818-.036 1.731-.177 2.298l-14.85 7.778.354 12.552 15.025-6.719"/>
        <path d="m7.735209 38.632284.529 24.926 8.662-5.748"/>
        <path d="m2.785209 41.107284.707 26.87 51.441.529c0 .922 1.737-.685 2.476-1.236.74-.557 1.282-.931 1.768-1.414.739-.739 1.585-.876 2.299-1.77.835-1.044.885-2.184.885-3.535 0-1.143-1.563-2.358-1.769-3.182-.154-.614-1.283-.995-1.769-1.237-.853-.427-1.543-.972-2.651-1.415-.872-.349-2.448.053-3.358-.177-1.021-.255-1.478-.208-2.121-.53m-.179-17.5c.013.016 2.426-.253 2.829-.354 1.037-.259 2.068.17 2.828.354.856.208 1.489.461 2.475.708.688.171 1.271.915 1.593 1.237.613.614 1.069 1.257 1.414 1.944.378.756.707 1.188.707 2.121 0 1.028-.058 1.704-.354 2.298-.155.31-.836.475-1.061.53m-10.431-20.505c-.416.833 1.748-.657 2.652-.884.862-.216 2.124 0 3.005 0 .804 0 1.563.782 2.121 1.062.792.396 1.412 1.06 2.122 1.414.674.337.913.826 1.061 1.414m-.177 0-.53 11.138m-10.254-31.291c-.421.844 1.886 0 2.829 0 1.121 0 2.161.03 2.828.354.876.427 1.721 1.05 2.475 1.237.866.217 1.089.911 1.593 1.415.557.557.821 1 1.236 1.414"/>
        <path d="m61.298209 20.954284.177-9.016c-.133.133 1.591-1.428 1.591-3.006 0-1.216-.299-1.372-.529-2.299-.266-1.059-1.396-1.938-2.121-2.121-.779-.194-2.253-1.469-2.652-1.768-.623-.468-2.185-.493-2.828-.707-.7-.234-1.939-.044-2.475-.177-.663-.166-.599-.371-1.237-.53m-28.64 19.094-2.573 4.065 4.695-1.591.177 9.369-4.243-1.062 2.121 3.712m-6.717-11.841.354 8.662m.34-30.729c-.53.796-1.667 2.622-2.108 3.505-.428.854-.9 1.245-1.592 1.592-.873.437-1.479 1.004-2.651 1.591-.732.367-1.832.177-2.65.177v18.031m52.501 18.737v12.021"/>
      </g>
      <path fill="none" stroke="#000" d="M63.596209 24.843284c.065.777-.559 1.796-1.061 2.299-.344.343-.304.417-.884.707"/>
      <path fill="#ff0" stroke="#070404" stroke-width=".2475" stroke-linecap="round" d="M39.662209 40.786284c-2.114-4.329-3.738-8.076-3.609-8.326.128-.251.464-.854.744-1.34.67-1.158.658-2.966-.029-4.415l-.552-1.162 3.892-7.729 3.893-7.729-.027 11.49c-.015 6.319-.125 14.999-.246 19.287l-.22 7.796z"/>
      <path fill="#ff0" stroke="#070404" stroke-linecap="round" d="m28.428209 16.376284-4.427-9.122 8.338-.104c4.586-.059 8.999-.012 9.808.104l1.47.21-4.359 8.911c-5.871 11.994-5.008 11.994-10.83.001Zm-5.022 29.015c-.126-1.491-.229-4.646-.229-7.011 0-3.23-.143-4.458-.519-4.983-.952-1.331-1.029-1.315 1.049-.755.866.232 1.679.274 1.787.167.107-.108.086-2.586-.051-5.507l-.247-5.309-1.407.496c-1.991.703-2.635 1.346-1.809.185.667-.936 1.199-2.271 1.228-7.696l-.271-7.282 4.487 9.812c3.668 7.438 4.124 8.555 3.687 9.039-.831.919-.998 2.639-.378 3.882l.563 1.13-3.745 8.178c-2.061 4.498-3.784 8.221-3.831 8.272-.047.051-.188-1.126-.314-2.618zm.477 5.669c0-.146 7.666-16.923 8.175-17.891.281-.533.443-.547 1.455-.121 1.023.431 1.563 1.352 5.284 9.016 2.627 5.412 3.988 8.585 3.719 8.668-.573.179-18.633.496-18.633.328z"/>
      <path fill="#ff0" stroke="#070404" stroke-width=".2475" stroke-linecap="round" d="M8.737209 60.066284c-.105-1.206-.101-6.421-.181-11.515l-.227-9.205s3.133-1.444 4.641-2.141l2.844-1.219.109 10.969.156 10.766-3.656 2.406-3.625 2.453z"/>
      <path fill="#ff0" stroke="#070404" stroke-linecap="round" d="M34.313209 57.970284c-5.25-.133-11.256-.262-13.347-.286l-3.801-.048v-21.921l1.855.006c3.668-.062 3.199-.607 3.029 8.786l.111 8.11 4.838-.144c2.661-.079 7.8-.239 11.42-.355l6.582-.213.262-22.788c.146-12.533.199-22.852.121-22.93-.077-.077-5.424-.252-11.882-.39l-11.741-.247v14.254h-5.025l.222-1.503c.121-.825.056-4.725.223-8.711.166-3.985-.022-7.91 0-7.958.024-.049 7.939.495 16.8.495h16.108l-.223 27.488c-.123 15.119-.304 27.768-.399 28.107-.15.527-.575.608-2.893.553-1.491-.034-7.009-.172-12.26-.305z"/>
      <path fill="#ff0" stroke="#070404" stroke-width=".2475" stroke-linecap="round" d="M1.787209 36.816284c-.04-2.141-.253-7.203-.253-7.203l7.501-3.787c4.484-2.365 7.377-4.045 7.452-4.416.104-.52.016-.641.016-.641 1.197.136 5.126.28 5.126.28s-2.908 4.412-2.746 4.412c.161 0 5.401-2.143 5.401-2.143s-.048 2.447-.048 4.4l.048 3.876-2.11-.577c-1.173-.297-2.407-.497-2.407-.497s.583 1.113 1.221 2.227l1.188 2.067-3.375-.188c-1.647-.126-2.802-.089-2.984.078-.321.295-13.574 6.4-13.905 6.4-.094.003-.125-4.288-.125-4.288zm15.137-6.297c-.031-.738-.184-2.736-.187-4.438-.003-2.855.021-3.094-.634-3.094-.807 0-.732.821-.337 5.922.202 2.597.166 2.917.789 2.917.616.001.421-.088.369-1.307zm-8.596-13.955v-8.072h1.063c2.017-.597 3.728-1.647 5.416-3.483l1.414-2.042-.309 5.701c-.102 2.917-.005 6.726-.112 8.674l-.25 3.833-3.583 1.9-3.638 1.85zm49.404 38.218c-.729-.387-2.241-.782-3.357-.881-3.878-.343-3.748-.242-3.491-2.699.123-1.186.225-3.551.225-5.256v-3.103l1.769-.587c2.248-.746 3.568-.465 5.344 1.14l1.374 1.241v5.438c0 2.991-.119 5.432-.265 5.424-.15-.008-.868-.332-1.599-.717z"/>
      <path fill="#ff0" stroke="#070404" stroke-width=".2475" stroke-linecap="round" d="M59.408209 42.778284c-2.292-2.326-4.082-2.711-7.505-1.612-.766.245-.797.173-.797-1.85 0-1.883.084-2.126.797-2.316 1.754-.471 4.874.063 6.986 1.193 1.746.935 3.615 5.478 2.529 6.147-.16.101-1.066-.602-2.01-1.562zm.082-5.814c-1.121-.819-5.171-1.649-6.836-1.399l-1.548.231v-10.248l1.149-.48c2.03-.852 3.876-.567 6.256.959l2.152 1.381-.23 4.95c-.127 2.723-.249 4.977-.271 5.009-.022.032-.325-.149-.672-.403z"/>
      <path fill="#ff0" stroke="#070404" stroke-width=".2475" stroke-linecap="round" d="M59.439209 25.056284c-2.257-1.577-2.617-1.715-4.53-1.715-1.145 0-2.4.172-2.793.383-.395.211-.79.307-.884.214-.093-.093-.059-1.14.076-2.326l.244-2.158h1.667c1.73 0 5.2 1.027 6.626 1.962.936.612 2.929 3.238 2.929 3.856 0 .226-.197.654-.44.955-.388.476-.747.331-2.895-1.171zm-1.261-5.887c-1.264-.451-3.293-.913-4.508-1.026l-2.21-.206v-9.446h1.998c2.406 0 5.277 1.268 6.443 2.844.701.95.765 1.404.675 4.853l-.102 3.803z"/>
      <path d="M32.577209 30.739284c-1.534-1.823-1.065-3.622 1.047-4.02 1.708-.319 2.281.219 2.281 2.146 0 1.076-.217 1.763-.708 2.255-.973.972-1.552.888-2.62-.381zm-9.401 36.78c-10.403-.125-19.131-.033-19.158-.063-.025-.03-.13-4.32-.25-9.328-.12-5.007-.203-10.707-.313-12.703l-.126-3.891 1.845-.781 2.031-.938.281 11.53c.138 6.269.147 11.854.206 12.391l.042.798 8.772-5.817 14.624.492c8.167.115 15.923.302 17.235.415l2.387.205v-4.877l2.387.131c4.471.246 8.573 3.272 8.573 6.322 0 1.413-.588 2.137-3.632 4.468l-2.634 2.018-6.679-.07c-3.671-.041-15.187-.176-25.591-.302Zm-19.043-63.27 4.122.035c2.082.02 5.371-.166 5.836-.035.813.229-.842 1.386-2.333 2.386-.996.669-1.708 1.062-2.786.832l-1.883-.213.126 18.116-4.166 2.301zm56.392 5.708c-1.609-1.682-4.859-2.965-7.146-2.822l-1.92.119.001-2.514v-2.515l2.74.438c2.159.346 3.246.756 5.124 1.934 1.988 1.247 2.452 1.725 2.799 2.883.337 1.123.319 1.59-.091 2.455l-.505 1.068Z" fill="#ff0" stroke="#070404" stroke-width=".2475" stroke-linecap="round"/>
    </g>
    <g id="rose" stroke-linecap="round" transform="translate(-18.599111 -103.48222)">
      <path fill="olive" stroke="#070404" stroke-width="2" d="M109.457 157.037c-23.64 1.28-36.35 13.986-43.597 32.403-8.625-19.429-22.604-31.053-44.292-31.446 21.079-15.54 21.864-33.333 16.223-51.842 17.119 9.841 34.965 12.286 54.317-.592-2.961 20.075 1.289 37.744 17.349 51.477"/>
      <g fill="red" stroke="#000" stroke-width="2">
        <path d="M57.441 105.901c2.072 0 6.43 2.144 8.501 2.144 2.071 0 5.286-2.285 7.357-2.285 6.218.534 11.952 11.799 8.714 16.43-3.205 4.584-15.722 22.404-16.144 21.858-1.112-1.442-12.276-17.594-15.572-22.859-3.675-5.874 2.64-15.102 7.144-15.288z"/>
        <path d="M98.93 124.047c1.862 3.352.071 7.036.711 9.007.64 1.97 3.079 4.468 2.733 8.576-.335 3.976-7.656 11.373-13.033 9.733-5.376-1.641-24.353-6.684-23.963-7.254 1.026-1.504 12.938-17.111 16.928-21.874 4.451-5.309 14.761-1.539 16.624 1.812z"/>
        <path d="M95.27 168.253c-1.908 2.455-6.309 2.906-7.984 4.124-1.677 1.218-4.021 3.804-7.038 6.46-3.018 2.655-14.104-3.538-14.206-9.187-.103-5.593-.522-26.637.14-26.441 1.747.512 18.845 6.446 24.605 8.769 6.425 2.589 6.503 13.674 4.483 16.275z"/>
        <path d="M51.328 179.149c-2.837-1.724-4.883-4.979-6.559-6.195-1.676-1.219-5.621-1.259-7.296-2.477-5.241-2.879-3.29-15.563 2.051-17.404 5.287-1.825 26.444-9.895 26.465-9.203.053 1.818.447 19.448.02 25.646-.478 6.911-11.844 11.358-14.681 9.633z"/>
        <path d="M27.913 141.94c.45-3.92 2.977-6.964 3.616-8.935.641-1.97.461-6.876 1.101-8.846 1.119-4.019 13.641-7.081 17.044-2.572 3.369 4.465 16.724 22.38 16.074 22.611-1.714.612-19.098 6.811-25.123 8.317-6.721 1.684-13.168-6.614-12.712-10.575z"/>
      </g>
      <path fill="olive" stroke="#070404" d="M37.729 153.174c.24.325 23.5-9.338 23.935-10.79.353-1.391-12.781-22.21-13.025-22.029-.244.181 16.281 18.617 17.612 18.89 1.392.353 17.645-18.955 17.384-19.14-.261-.184-12.71 21.211-12.396 22.485.396 1.215 23.266 10.563 23.391 10.22.123-.343-24.289-5.66-25.447-4.677-1.015.75-3.405 25.636-3.063 25.761.363-.019-2.034-25.007-3.161-25.682-1.045-.735-25.204 4.314-25.066 4.841z"/>
      <path fill="none" stroke="#000" d="M53.817 116.436c.582-2.182 2.534-4.654 4.767-4.52 2.096.127 4.163 1.844 6.963 1.885 2.8.041 5.113-2.484 9.165-1.158 2.405.787 2.751 2.342 3.449 4.368m10.485 6.523c2.364.357 3.735 2.107 4.705 4.771.719 1.974-.245 3.824.581 6.501.826 2.676 1.438 2.361 2.625 5.295.732 1.81.288 3.12-1.016 5.736m-3.639 12.257c.377 1.74.415 4.715-2.24 6.872-2.101 1.707-4.099 1.113-6.389 2.727-2.29 1.612-2.943 3.908-5.458 5.122-2.424 1.17-4.277.52-6.035-.711m-12.489.852c-2.047.855-4.017 1.211-5.743-.211-1.621-1.335-3.48-3.29-5.722-4.971-2.242-1.679-3.851-1.057-6.45-3.698-1.37-1.391-1.396-4.016-.77-6.065m-4.358-11.195c-1.447-1.683-3.377-3.035-2.255-6.834.594-2.014 2.229-3.323 3.133-5.976.903-2.65.161-4.618 1.782-7.237 1.344-2.172 3.246-2.628 5.391-2.665"/>
      <path fill="#ff0" stroke="#070404" d="M74.937 158.578s-6.854-5.188-9.583-5.229c-2.729-.043-9.741 4.93-9.741 4.93s2.815-8.121 2.013-10.729c-.804-2.608-7.699-7.741-7.699-7.741s8.594.168 10.827-1.4c2.232-1.57 4.982-9.716 4.982-9.716s2.496 8.227 4.68 9.864c2.183 1.638 10.777 1.736 10.777 1.736s-7.051 4.916-7.935 7.499c-.883 2.581 1.679 10.786 1.679 10.786z"/>
      <circle fill="#ff0" stroke="#070404" cx="65.374001" cy="145.83701" r="2.635"/>
      <circle fill="#ff0" stroke="#070404" cx="65.374001" cy="139.618" r="2.635"/>
      <circle fill="#ff0" stroke="#070404" cx="69.460999" cy="150.56799" r="2.635"/>
      <circle fill="#ff0" stroke="#070404" cx="61.426998" cy="150.56799" r="2.635"/>
      <circle fill="#ff0" stroke="#070404" cx="59.969002" cy="143.595" r="2.635"/>
      <circle fill="#ff0" stroke="#070404" cx="71.057999" cy="143.595" r="2.635"/>
    </g>
  </defs>
  <path fill="#FFF" stroke="#000" d="M150.232 352.778C316.427 275.302 298.599 143.185 298.506 4.964c.162-.399.332-.797.494-1.196H6.814c.162.399.332.797.494 1.196-.094 138.221-13.767 270.338 142.924 347.814z"/>
  <path fill="red" stroke="#070404" stroke-width=".7" stroke-linecap="round" d="M7.307 3.767h291.46V94.33H7.307z"/>
  <path fill="red" stroke="#000" stroke-width=".5342" d="m7.001 93.332 291.767.998"/>
  <path fill="red" stroke="#070404" stroke-width="2" stroke-linecap="round" d="M223.37 298.741c-28.364-45.947-70.896-115.279-71.379-115.279-.355 0-16.795 25.947-36.528 57.66-19.735 31.714-37.201 60.146-37.591 60.743-.444.677-2.26-1.412-4.851-3.911-4.763-4.594-18.655-21.915-21.063-26.144l-2.623-3.85 51.813-84.326 50.813-83.325 2.398 3.825c1.319 2.104 23.9 39.15 50.182 82.326 27.537 45.239 52.021 83.061 51.19 82.111-2.884 7.783-23.134 29.533-29.941 34.728l-2.42-4.558z"/>
  <path fill="#FFE000" d="M131.515 58.083c4.658.937 9.781 1.056 14.765-.627 10.672-3.602 16.802-5.245 21.555-5.583-.17-.002-7.179 4.075-6.471 6.905.707 2.83 4.92 2.562 6.772 2.763 1.853.203 3.773 2.393 1.313 4.077-2.461 1.685-4.616 5.862-7.413 5.931-2.798.068-2.09-2.089-2.932-2.931-.177-.177-.45-.344-.929-.474-.149.001-4.766-3.94-8.237 1.484 0 0 3.115-.956 4.38.97-.195 1.717 1.52 1.452 2.123 2.298 0 0-2.659-1.92-4.378.192-2.683-1.098-3.595-.042-4.308 1.57-.552 1.522.052 2.882.856 3.902.646-1.616 1.64-2.042 3.286-1.986.602.768 1.567 1.253 2.352 1.216.152.156-2.944.68-1.182 5.136 0 0 3.025-3.669 6.063-1.906.012.047.798.644 1.346-.787.549-1.429 2.098-2.812 3.099-2.119 1.001.69.867 3.206 5.434 1.876 0 0-2.711-2.898.783-5.481-.047.433-.104.755-.21 1.084-.505 1.55 1.28 2.898 1.28 2.898s.135-2.562 1.517-3.304c.599-.319.98-1.261 1.245-2.417.068-.126 1.417.616 1.687 3.396 0 0 2.698-4.242 1.081-9.868 0 0 2.623 2.882 2.79 5.169 0 0 4.789-6.386-.501-11.484 1.205.112 1.884-.435 2.74-1.071.381-1.072-.144-2.217-1.312-2.55-1.167-.333-1.452.597-2.478.716-1.278.148-1.573-2.287.762-2.121.592.043 1.063-.308 1.705-.888 3.776 1.743 6.271 3.828 6.207 3.751 3.879 3.103 6.482 1.545 10.102 1.545 4.432 0 4.099 2.572 2.572 5.146-1.523 2.573-3.002 6.338-3.002 6.338s-.856 2.764-1.811 1.382-2.192-4.384-4.313-3.55c-.119.071-2.55-2.788-5.552.978 0 0 2.573-1.145 3.559.651-.39.85-.39 1.754.11 2.685-.916.174-1.516.691-2.138 1.282-.006-.044-3.724.146-3.58 2.958.143 2.813 2.239 3.574 2.239 3.574s-.716-2.144 1.931-3.088c.877 1.047 1.938 1.522 3.312.932-.011.484.02.825.096 1.204.715 3.526 3.098 3.432 3.098 3.432s-.524-2.287 1.459-3.302c.521.317.956.494 1.4.396 0 0 1 .048 1.048-.19.048-.237-.096-2.145.572-2.716.667-.571.856-1.048 2.572-1.048 0 0 2.813 3.717 5.051 1.811 0 0-3.002-3.907-2.286-6.719 0 0 .856 3.099 3.05 3.479 0 0 .856-.953.286-3.24-.572-2.287-.668-3.669-.524-5.003 0 0 1.524 4.67 4.956 4.003 3.431-.667-1.335-.048-1.153-6.656.535.426 1.562.672 2.964.271 0 0-.477-7.672-5.956-8.911 0 0 3.752-.282 2.504-3.651 0 0-7.277 2.83-13.586-4.986-.546-.606 7.031 3.396 12.226-2.369 5.194-5.767-1.382-10.198-4.193-11.39-2.811-1.19-16.011-1.954-24.491-.523-3.651.616-16.081.878-26.296.276 0 0-5.321-.276-5.061-3.255.263-2.978 2.66-5.046 6.233-4.046 3.573 1.001 6.442 4.207 14.975 3.165.007.002 3.455 1.138 5.688.2.201.078 3.727 1.076 5.981-.097.998.493 2.838 1.31 7.471.274 2.135.365 4.775.27 8.21-.807 8.674-2.716 10.197-4.766 18.584-5.813 0 0-4.104-.613-21.846.663-10.47.573-21.018-1.137-31.382-2.234-6.052-1.239-14.581-1.239-17.297 4.24-2.717 5.48-.145 10.103 4.241 11.104 4.384 1.001 17.549 1.649 31.498-.439 3.774-.564 9.785-.651 16.387-.313 0 0 9.93.382 8.75 5.335-1.179 4.953-8.929 3.571-11.928 1.078 0 0-5.661-3.673-18.195-1.921-12.535 1.752-37.113.253-37.246.067-.637-2.049-1.461-4.22-1.632-4.641 0 0 1.881.664 2.453 2.214 0 0 2.021-2.999-.941-6.878.003-1.93-.964-2.556-.964-2.556 2.812.763 3.384-3.05 3.384-3.05-2.335-.763-5.099 1.097-5.099 1.097 3.335-.715 3.524-3.24 3.524-3.24-2.716-.286-4.991 1.149-4.991 1.149 3.167-.875 3.03-5.257 3.03-5.257-3.976.068-5.458 3.37-5.458 3.37 2.428-2.831.54-7.413.54-7.413-3.101 1.82-3.438 6.335-3.438 6.335.135-4.784-3.842-5.593-3.842-5.593 1.28 2.291.943 5.458.943 5.458-.675-3.033-3.167-3.977-3.167-3.977-.606 2.562-.136 4.786-.136 4.786-1.146-3.101-3.639-2.629-3.639-2.629.172.278.316.618.259 1.125-1.041.636-1.856 1.285-2.166 3.217-.086.539-.12 1.014-.128 1.67-1.373-1.86-2.852-.836-2.852-.836s1.025.857-.5 2.835c-1.523 1.978-.715 3.191-.971 3.412-1.585 1.354-2.547 2.974-3.437 5.046 5.069-3.245 3.944-2.234 1.498.867-.685.941-1.362 2.097-2.14 3.427-6.144-3.479-7.188-8.97-5.268-10.317 1.334-.937 2.074-3.029 1.148-4.426.064-.946-.069-1.878-.711-2.818-2.156-3.167-5.728-.438-5.728-.438 3.1.539 2.628 2.56 2.548 2.542-2.117.824-2.165 3.521-2.023 6.136.104-2.63-.53-4.013-1.145-4.713-2.952-7.639-8.781-1.203-8.781-1.203 3.538-.876 4.111 1.348 4.111 1.348s.358-1.411-.31.924c-.306 1.069.285 1.994.781 2.484-1.162-.77-1.924-.15-1.938-.043-.016.106-1.7-1.579-3.723-.164-2.021 1.415-2.089 4.011-1.179 5.729 0 0 1.583-3.27 4.288-1.031 1.081 1.315 2.559.958 4.274.719 1.715-.238 2.191.43 2.382.93s-.381.811-.381.811c-2.335 1.31-2.765 2.418-2.765 2.418-.667 1.418.62 1.871 1.645 1.775 1.023-.097 3.479-2.454 3.479-2.454 1.287 3.431 3.049 3.1 3.049 3.1-3.233 3.47-7.614 2.189-7.614 2.189 3.234 4.313 7.21 2.932 7.21 2.932-1.078 2.562-5.224 1.887-5.224 1.887 2.696 3.234 7.684 4.01 7.684 4.01-.792 1.398-4.062.978-4.062.978 6.019 4.996 13.042 6.053 15.047 6.323-2.139 8.856-8.595 11.737-8.595 11.737 1.524-3.252-1.651-4.161-1.787-4.22-1.362-3.607-4.131-2.964-6.711-1.012 0 0 2.931-.5 3.375 1.906-.851.886-.99 2.121-.167 3.173.012-.023-1.573-1.038-2.841-.275-.081.128-.391-1.707-2.678-1.11-2.288.596-3.693 3.573-2.668 5.86 1.341-1.87 3.018-2.001 4.229-.718.379 1.159 1.275 1.745 2.417 1.777-.118.036-3.692 6.16 3.718 6.041 0 0-1.811-2.05-.147-3.779.735.519 1.327.695 1.813.612 1.752-.305 1.583-2.695 2.543-3.27.96-.573 1.416.118 1.416.118.473 5.088 6.194 3.555 6.194 3.555-1.475-1.074-2.389-2.548-2.202-4.438-.093-.918 2.465-3.282 2.465-3.282-1.097 4.694 2.765 5.289 2.765 5.289-.953-2.621 1.404-7.981 1.404-7.981-1.334 4.004 3.051 6.528 3.051 6.528s-.716-1.811.048-3.431c.763-1.62.477-3.24.333-5.146-.144-1.905.448-3.375.448-3.375 0 5.291 4.103 5.082 4.091 5.085-.161.055-.563-2.229.387-3.731.833-1.322.841-5.055.841-5.055 2.954 3.384 4.002-5.193 4.002-5.193"/>
  <path fill="none" stroke="#000" stroke-width="1.5" d="M187.975 72.99s1.858.047 2.669.952m-.905-5.193s-2.431-2.859-5.433.904c0 0 2.573-1.144 3.574.572m-2.048 4.004s-3.718.19-3.574 3.002c.143 2.813 2.239 3.574 2.239 3.574s-.716-2.144 1.954-3.145m6.146-1.572s-3.479.238-2.764 3.765 3.098 3.432 3.098 3.432-.523-2.287 1.334-3.288m0-4.719s-1.382.048-1.572.905c-.189.858 1.383 4.575 3.099 4.193 0 0 1 .048 1.048-.19.048-.237-.095-2.145.572-2.716s.856-1.048 2.572-1.048c0 0 2.813 3.717 5.052 1.811 0 0-3.002-3.907-2.287-6.719 0 0 .856 3.098 3.05 3.479 0 0 .856-.953.286-3.24-.572-2.287-.668-3.669-.524-5.003 0 0 1.524 4.67 4.956 4.003 3.431-.667-1.335-.048-.953-6.624m-2.004-2.098s1.097 3.383 4.767 2.335c0 0-.478-7.673-5.957-8.911 0 0 3.752-.282 2.504-3.651 0 0-7.277 2.83-13.039-4.381-2.042-2.555-5.564-3.917-9.262-4.61m3.166 35.657c-2.097 1.239-4.003-.762-4.192-2.859-.19-2.097 2.43-2.62 2.43-2.62-1-1.859 0-3.622 2.002-4.385 2.001-.762 3.24 2.24 4.193 3.622s1.811-1.382 1.811-1.382 1.479-3.765 3.002-6.338c1.525-2.573 1.858-5.146-2.572-5.146-4.432 0-7.339 2.334-13.104-4.622-5.766-6.957-17.154-5.242-17.154-5.242m20.248 8.434s-5.643-4.734-12.104-5.766c-6.576-1.048-12.484.048-28.021 5.29-4.982 1.683-10.105 1.563-14.765.627m.757-2.843s-1.048 8.576-4.002 5.193c0 0-.008 3.732-.841 5.054-.948 1.505-.548 3.786-.387 3.732.012-.003-4.09.205-4.09-5.085 0 0-.593 1.469-.449 3.375s.43 3.526-.333 5.146c-.764 1.619-.048 3.431-.048 3.431s-4.385-2.525-3.051-6.528c0 0-2.357 5.361-1.404 7.981 0 0-3.86-.596-2.765-5.289 0 0-2.558 2.364-2.465 3.282-.187 1.89.729 3.362 2.202 4.438 0 0-5.722 1.534-6.194-3.555 0 0-.455-.691-1.416-.118-.96.573-.792 2.965-2.543 3.269-1.752.304-4.886-2.796-2.493-4.92m-1.144 1.737c-3.016.927-4.835-.505-4.077-3.875s3.893-1.381 3.875-1.349c-1.566-2.004.354-4.666 3.64-4.01 0 0 3.175.91 1.65 4.161 0 0 6.456-2.88 8.493-11.683m-10.415 7.407s-1.549-5.528-6.576-.953c0 0 2.932-.5 3.432 1.857m-3.146 3.075s-.31-1.835-2.597-1.239c-2.288.597-3.693 3.574-2.668 5.861 1.341-1.87 3.018-2.001 4.169-.81m2.359 1.906s-3.573 6.124 3.836 6.004c0 0-1.811-2.049-.333-3.954m12.144-19.261c-2.108-.214-9.132-1.271-15.15-6.268 0 0 3.27.421 4.062-.979 0 0-4.987-.774-7.684-4.009 0 0 4.146.674 5.224-1.887 0 0-3.977 1.381-7.21-2.933 0 0 4.38 1.281 7.614-2.188 0 0-1.763.331-3.049-3.1 0 0-2.454 2.357-3.479 2.453s-2.312-.356-1.645-1.774c0 0 .43-1.108 2.765-2.418 0 0 .571-.311.381-.812-.19-.5-.667-1.167-2.382-.929s-3.193.596-4.266-.738c-1.071-1.334-1-3.336.62-4.623 0 0 .763-.618 1.692-.047m2.381 1.693s-3.598-1.645-2.931-3.979 2.906-2.478 3.74-2.024 2.55 1.477 2.384 5.67c-.17-3.127-.068-6.374 3.383-6.421 4.044.033 3.379 4.022 1.382 5.425-1.921 1.348-.876 6.839 4.987 10.311m-17.05-10.412s-1.685-1.686-3.707-.271c-2.021 1.415-2.089 4.01-1.179 5.729 0 0 1.583-3.27 4.279-1.012m2.09-7.917s-.573-2.224-4.111-1.348c0 0 5.829-6.437 8.862 1.28m3.166-1.482s.472-2.021-2.628-2.56c0 0 3.571-2.73 5.728.438.642.94.775 1.872.649 2.717m64.113 26.765s-7.009 4.078-6.301 6.907c.707 2.83 4.92 2.562 6.772 2.763 1.853.203 3.773 2.393 1.313 4.077-2.461 1.685-4.616 5.862-7.413 5.931-2.798.068-2.09-2.089-2.932-2.931-.843-.844-3.909-1.483-4.649 1.145-.742 2.628 1.313 2.19 1.986 3.134 0 0-2.659-1.92-4.548.337-1.888 2.258.891 4.805 2.204 4.4m5.646-1.712s-3.182-2.12-5.396 1.215 1.537-2.788 4.801 3.931c0 0 .786.597 1.334-.834.549-1.429 2.098-2.812 3.099-2.12s.867 3.207 5.434 1.877c0 0-2.711-2.898.809-5.611m-.373-1.753s.64 1.416.135 2.965c-.505 1.55 1.281 2.898 1.281 2.898s.134-2.562 1.516-3.304c1.382-.741 1.617-4.785 1.011-5.626m.303 3.084s1.349.742 1.617 3.521c0 0 2.698-4.242 1.081-9.868 0 0 2.623 2.882 2.79 5.169 0 0 4.789-6.386-.501-11.484 0 0 2.359 0 2.74-1.071.381-1.072-.144-2.217-1.312-2.55-1.167-.333-1.452.597-2.478.716-1.278.148-1.573-2.287.762-2.121.682.049 1.2-.42 1.722-1.228m-22.089 14.418s-4.615-3.941-8.088 1.483c0 0 3.115-.956 4.39 1.086m-2.093 2.229c-2.854-.952-3.767.104-4.479 1.716-.552 1.522.052 2.882.856 3.902.646-1.616 1.64-2.042 3.313-1.95m2.478 1.335s-3.098.524-1.334 4.979c0 0 3.025-3.669 6.053-1.954m35.618-34.761s7.576 4.003 12.771-1.763c5.194-5.767-1.382-10.198-4.193-11.39-2.811-1.19-16.011-1.954-24.491-.523-3.651.615-16.081.878-26.295.276 0 0-5.322-.276-5.062-3.255.263-2.978 2.66-5.046 6.233-4.046 3.573 1.001 6.442 4.207 15.13 3.241m-6.71-3.292s1.905.07 3.836 1.501c1.93 1.429 4.05 3.073 8.506 1.978m-6.243-3.456s1.786-.119 3.55 1.382c1.764 1.502 3.265 3.621 8.673 1.979m-4.956-2.36s.477-.477 3.858 1.716c3.384 2.191 6.386 1.238 8.34.81m-6.98-2.693s.882-.356 1.954.381c1.071.738 4.692 4.266 13.365 1.55 8.674-2.717 10.197-4.766 18.584-5.813 0 0-4.104-.614-21.846.663-2.143.155-4.521.134-7.062-.017 0 0-18.269-.98-24.32-2.22-6.052-1.238-14.581-1.238-17.297 4.241-2.717 5.48-.145 10.103 4.241 11.104 4.384 1.001 17.549 1.649 31.498-.439 3.774-.564 9.785-.652 16.387-.313 0 0 9.93.382 8.75 5.335-1.179 4.952-8.929 3.57-11.928 1.077 0 0-5.661-3.673-18.195-1.921-12.535 1.752-37.113.253-37.113.253m-15.539-8.654s1.457.325 1.648 1.087c.085.339.408.578.784.722 0 0-.117 3.566-3.264 2.328-1.057-.416-1.599-1.09-1.846-1.854 0 0-.251-.387-.203-1.006 0 0-2.145.524-2.239-1.523-.096-2.049.667-2.859 1.431-3.956.762-1.096.88-6.199-.333-8.153 0 0 2.493-.471 3.639 2.628 0 0-.472-2.224.136-4.786 0 0 2.492.944 3.167 3.978 0 0 .337-3.167-.943-5.458 0 0 3.977.809 3.842 5.593 0 0 .337-4.515 3.438-6.335 0 0 1.888 4.582-.54 7.413 0 0 1.482-3.302 5.458-3.37 0 0 .137 4.381-3.03 5.256 0 0 2.275-1.435 4.991-1.148 0 0-.189 2.524-3.524 3.239 0 0 2.764-1.857 5.099-1.096 0 0-.571 3.813-3.384 3.049 0 0 1.62 1.05.663 4.244-2.97.338-3.998-2.433-3.998-2.433 1.144 4.479-.43 5.432-1.668 6.527-1.239 1.097-2.479-1.857-2.479-1.857s1.479 2.24-1.952 2.621c-3.433.381-2.456-3.9-2.456-3.9.472.183 1.023.214 1.29.108.477-.19 1.2.081 1.857-.542m-7.748 1.903s.199 1.197.097 2.813c-.078 1.203.025 4.418 1.429 4.575 2.141.24 3.908-1.573 4.956-4.766m-8.436-9.389s-2.478-.361-1.811-4.527c.31-1.931 1.125-2.581 1.987-3.092m16.263 27.392c2.797-1.449 1.387-6.321 1.927-5.95.539.37 1.261 1.175 1.261 1.175s.495-3.1-1.731-7.682c0 0 1.881.664 2.453 2.214 0 0 2.021-2.999-.943-6.705m-20.263-2.014c-4.91.23-7.025 2.563-8.839 6.791 0 0 2.311-1.979 4.24-2.05.024-.023-5.551 4.169-5.359 10.889 0 0 1.382-1.954 2.954-1.858 0 0-2.765 6.052-.572 10.437 0 0 .143-2.288 1.906-3.526 0 0-1.43 3.383.763 6.576 0 0 .715-2.573 1.572-3.098 0 0-.811 3.766 1.001 8.006 0 0 4.099-1.191 6.813-4.86 0 0 1.191 2.036.315 3.484 0 0 3.201-.81 4.516-6.604 0 0 .235 3.403-.473 4.448 0 0 3.943-2.426 4.415-9.232 0 0 .909 3.942.37 5.155 0 0 5.459-3.134 2.662-14.253m-21.431-8.781s-.81-1.215.715-3.191c1.525-1.979.5-2.836.5-2.836s1.479-1.023 2.837 1.072m-1.995 11.206s-1.28 4.583-.741 9.502c0 0 1.078-1.281 2.123-1.146 0 0-1.112 1.448-.708 3.808 0 0 1.28-1.617 3.134-1.449 0 0-1.651 1.854.103 6.401 4.277-2.594 3.269-5.391 3.269-5.391s1.449 1.516.977 3.672c0 0 2.63-.774 2.563-4.718 0 0 .841 1.482.942 2.897 0 0 1.785-.606 2.324-5.559 0 0 1.181 1.11 1.112 2.089 0 0 1.617-.979 1.517-6.369m-.778-4.141s-.202 3.438-1.349 4.246c-1.146.81-2.584 3.644-3.324 3.912-.741.27-2.628.067-3.37.404-.74.337-1.617 1.079-2.695-.471-1.078-1.551-1.55-1.617-1.954-2.359 0 0-.202-.675 0-1.483s.81-5.12-.066-6.198c0 0 1.304-.813 1.506-1.554"/>
  <path d="M122.361 36.211s.363 1.463.302 2.351l-.08 1.109s.888-2.221 2.315-2.777c0 0-.212-3.374-2.537-.683zm-3.954-9.697s-.021-.019-.328-.85c-.311-.832-.213-2.589.676-2.358.888.232-.348 3.227-.348 3.208zm9-1.685-.749.001s-.933.85-1.15 1.846c-1.594-1.3-3.101-2.469-5.335-1.826l.242.883c.648 1.208.665 1.715.998 2.028.271.38.637.745 1.12.958.481.213 1.091.259 1.758.022.426-.151.737-.352.955-.577.168-.175.215-.384.262-.588.007.02.019.025.041.063.021.036.054.14.217.164.082.012.181-.028.23-.062.049-.033.058-.07.072-.095.063-.091.063-.118.078-.169.017-.051.056-.104.05-.186-.1-1.436 1.211-2.462 1.211-2.462zm-6.063 1.014c.337-.028 1.117.032 1.563.366-.493.208-.591.81-.591 1.063 0 .259.063.487.141.703-.209-.152-.392-.352-.547-.568-.352-.492-.493-1.326-.566-1.564zm2.878.895c.213.064.4.163.536.252.161.235.237.183.226.384-.008.125-.067.239-.195.373-.128.133-.339.281-.704.411.125-.254.182-.558.182-.888-.002-.185-.005-.367-.045-.532zm3.994-1.596.527.53s.059 1.26-.492 2.121c2.046.207 3.938.447 5.063 2.479l-.795.453c-1.313.396-1.683.742-2.14.729-.462.076-.979.076-1.47-.115s-.954-.588-1.26-1.228c-.193-.407-.272-.771-.268-1.084.004-.241.119-.423.229-.6-.02.008-.03.005-.072.015-.041.01-.139.063-.27-.036-.065-.05-.107-.148-.119-.206-.013-.059.01-.092.015-.119.021-.11.039-.128.063-.174.025-.048.034-.112.098-.167 1.091-.946.891-2.598.891-2.598zm3.569 5.005c-.218-.259-.813-.768-1.363-.848.2.497-.157.99-.337 1.17-.183.182-.388.301-.594.398.256.04.522.027.787-.017.598-.098 1.287-.587 1.507-.703zm-2.668-1.404c-.196-.105-.397-.169-.558-.202-.281.053-.297-.039-.431.11-.084.096-.122.219-.125.402-.003.186.04.439.207.789.091-.268.267-.523.499-.756.133-.128.263-.254.408-.343z"/>
  <use xlink:href="#book" transform="translate(15.808,12.737)"/>
  <use xlink:href="#book" transform="translate(220.422,12.737)"/>
  <use xlink:href="#rose" transform="translate(18.599 103.482)"/>
  <use xlink:href="#rose" transform="translate(201.042 103.482)"/>
  <use xlink:href="#rose" transform="translate(105.557,245.584)"/>
</svg>
